<?xml version="1.0" ?><svg xmlns="http://www.w3.org/2000/svg" xmlns:xlink="http://www.w3.org/1999/xlink" version="1.1" viewBox="0 0 512 512" style="enable-background:new 0 0 512 512;" xml:space="preserve"><g id="_x32_2_x2C___book_x2C__literature_x2C__study_x2C__education_x2C__reading"><g id="XMLID_350_"><path id="XMLID_585_" style="fill:#313A6B;" d="M136.006,10.995l10.505,176.666l-9.505,173.334l-31.86,10    c-21.12,0-38.34,7.1-39.11,28.5c-0.057-1.424-0.02,13.868-0.03-344.49c0-24.31,19.7-44.01,44.01-44.01H136.006z"/><path id="XMLID_372_" style="fill:#7A9FF1;" d="M445.006,10.995l1,350l-161,10l-148-10l-1-350    C148.02,10.995,423.237,10.995,445.006,10.995z"/><path id="XMLID_583_" style="fill:#5272D0;" d="M105.146,361c-21.12,0-38.34,17.1-39.11,38.5c0.871,21.776,18.098,41.5,39.11,41.5    C116.71,441,427,441,446,441c0-25,0-56,0-80C442,361,115.469,361,105.146,361z"/><path id="XMLID_582_" style="fill:#E06C6C;" d="M357.006,500.995l-46-20l-45,20c0-25.609,0-74.36,0-100h91    C357.006,432.446,357.006,468.998,357.006,500.995z"/><path id="XMLID_368_" style="fill:#C8DAF0;" d="M291.006,50.995c49.71,0,90,40.29,90,90s-40.29,90-90,90s-90-40.29-90-90    S241.296,50.995,291.006,50.995z"/><polygon id="XMLID_580_" style="fill:#7FDA86;" points="341.006,120.995 341.006,160.995 311.006,160.995 311.006,190.995     271.006,190.995 271.006,160.995 241.006,160.995 241.006,120.995 271.006,120.995 271.006,90.995 311.006,90.995     311.006,120.995   "/><g id="XMLID_1_"><path id="XMLID_360_" d="M455.006,10.967c-0.016-5.512-4.488-9.972-10-9.972c-10.316,0-325.026,0-334.988,0     c-29.782,0-54.012,24.229-54.012,54.012c0,371.594-0.147,346.535,0.29,348.34c2.673,26.42,24.259,47.648,48.85,47.648h150.86v50     c0,7.229,7.457,12.074,14.062,9.138l40.982-18.214l41.969,18.247c6.598,2.865,13.987-1.974,13.987-9.171v-50h79     c5.522,0,10-4.478,10-10C456.005,346.212,456.204,418.541,455.006,10.967z M435.034,20.995l0.943,330h-289l-0.943-330     C160.455,20.995,422.576,20.995,435.034,20.995z M110.018,20.995h16.017l0.943,330h-21.832c-10.92,0-20.992,3.579-29.14,9.664     V55.007C76.006,36.253,91.264,20.995,110.018,20.995z M105.146,430.995c-15.309,0-28.413-15.233-29.102-31.491     c0.754-16.015,13.471-28.509,29.102-28.509c14.858,0,314.216,0,330.86,0v20c-25.873,0-190.087,0-210,0c-5.522,0-10,4.478-10,10     s4.478,10,10,10h30v20H105.146z M347.006,485.743l-32.013-13.919c-2.572-1.117-5.491-1.104-8.049,0.033l-30.938,13.75v-74.612h71     V485.743z M367.006,430.995v-20h69v20H367.006z"/><path id="XMLID_357_" d="M291.006,240.995c55.141,0,100-44.859,100-100s-44.859-100-100-100s-100,44.859-100,100     S235.865,240.995,291.006,240.995z M291.006,60.995c44.112,0,80,35.888,80,80s-35.888,80-80,80s-80-35.888-80-80     S246.894,60.995,291.006,60.995z"/><path id="XMLID_571_" d="M371.006,260.995h-160c-5.522,0-10,4.478-10,10s4.478,10,10,10h160c5.522,0,10-4.478,10-10     S376.528,260.995,371.006,260.995z"/><path id="XMLID_570_" d="M371.006,310.995h-160c-5.522,0-10,4.478-10,10s4.478,10,10,10h160c5.522,0,10-4.478,10-10     S376.528,310.995,371.006,310.995z"/><path id="XMLID_352_" d="M261.006,170.995v20c0,5.522,4.478,10,10,10h40c5.522,0,10-4.478,10-10v-20h20c5.522,0,10-4.478,10-10     v-40c0-5.522-4.478-10-10-10h-20v-20c0-5.522-4.478-10-10-10h-40c-5.522,0-10,4.478-10,10v20h-20c-5.522,0-10,4.478-10,10v40     c0,5.522,4.478,10,10,10H261.006z M251.006,130.995h20c5.522,0,10-4.478,10-10v-20h20v20c0,5.522,4.478,10,10,10h20v20h-20     c-5.522,0-10,4.478-10,10v20h-20v-20c0-5.522-4.478-10-10-10h-20V130.995z"/></g></g></g><g id="Layer_1"/></svg>